# xmcd
#
# Track frame offsets: 
#        150
#        13037
#        30788
#        50431
#        63795
#        76936
#        90702
#        102474
#        114435
#        127395
#        143321
#        155072
#        160517
#        176388
#        188548
#        201329
#        212802
#        225291
#        237709
#        250677
#        261867
#        274499
#        288400
#        301193
#        311393
#
# Disc length: 4293 seconds
#
# Revision: 1
# Processed by: cddbd v1.5.2PL0 Copyright (c) Steve Scherf et al.
# Submitted via: ExactAudioCopyFreeDBPlugin 1.0
#
DISCID=4d10c319
DTITLE=Various Artist - Lonesome Whistle:  An Anthology of American R
DTITLE=ailroad Song
DYEAR=2012
DGENRE=Trains
TTITLE0=Sleepy John Estes - Special Agent (Railroad Police Blues) (193
TTITLE0=7)
TTITLE1=Cripple Clarence Lofton - Streamline Train (1938)
TTITLE2=Smith Casey - Santa Fe Blues (1939)
TTITLE3=The Rouse Brothers - Orange Blossom Special (1939)
TTITLE4=Bukka White - Special Stream Line (1940)
TTITLE5=Leadbelly - The Midnight Special (1940)
TTITLE6=Leadbelly and The Golden Gate Quartet - Rock Island Line (1940)
TTITLE7=Byron Parker and His Mountaineers - C. and N.W.  Railroad (1940)
TTITLE8=Karl and Harty - Gospel Cannon Ball (1941)
TTITLE9=Yank Rachell - Hobo Blues (1941)
TTITLE10=Arthur Crudup - Mean Old Frisco Blues (1942)
TTITLE11=Leadbelly - Lining Track (Line 'Em) (1944)
TTITLE12=Sonny Terry and Brownie McGhee - Lonesome Train (1944)
TTITLE13=Sonny Boy Williamson - G. M. and O. Blues (1945)
TTITLE14=Hank Williams - Pan American (1947)
TTITLE15=Woody Guthrie - Hard Travelin' (1947)
TTITLE16=Muddy Waters - Train Fare Home (1948)
TTITLE17=T-Bone Walker - Railroad Station Blues (1953)
TTITLE18=Reverend Robert Ballinger - This Train (1955)
TTITLE19=Elvis Presley - Mystery Train (1955)
TTITLE20=Johnny Cash - Fulsom Prison Blues (1955)
TTITLE21=Howlin' Wolf - Smokestack Lightnin' (1956)
TTITLE22=Chuck Berry - Down Bound Train (1955)
TTITLE23=Johnny Burnette and The Rock 'n' Roll Trio - Train Kept a Rolli
TTITLE23=n' (1956)
TTITLE24=Johnny Cash - I Heard That Lonesome Whistle Blow (1957)
EXTD=
EXTT0=
EXTT1=
EXTT2=
EXTT3=
EXTT4=
EXTT5=
EXTT6=
EXTT7=
EXTT8=
EXTT9=
EXTT10=
EXTT11=
EXTT12=
EXTT13=
EXTT14=
EXTT15=
EXTT16=
EXTT17=
EXTT18=
EXTT19=
EXTT20=
EXTT21=
EXTT22=
EXTT23=
EXTT24=
PLAYORDER=
